<?xml version="1.0" encoding="iso-8859-1"?>
<!-- Generator: Adobe Illustrator 19.0.0, SVG Export Plug-In . SVG Version: 6.00 Build 0)  -->
<svg xmlns="http://www.w3.org/2000/svg" xmlns:xlink="http://www.w3.org/1999/xlink" version="1.1" id="Layer_1" x="0px" y="0px" viewBox="0 0 512.004 512.004" style="enable-background:new 0 0 512.004 512.004;" xml:space="preserve" width="512px" height="512px">
<g>
	<g>
		<g>
			<path d="M452.463,0.002H59.546c-32.832,0-59.541,26.709-59.541,59.52v239.147h512V59.522     C512.004,26.711,485.295,0.002,452.463,0.002z M228.442,219.586c8.32,8.341,8.32,21.845-0.043,30.165     c-4.139,4.16-9.6,6.251-15.061,6.251c-5.461,0-10.944-2.091-15.104-6.251l-63.168-63.296c-2.283-2.069-4.139-4.651-5.397-7.616     c-3.285-7.979-1.515-17.152,4.587-23.253l64-64c8.341-8.341,21.824-8.341,30.165,0c8.341,8.341,8.341,21.824,0,30.165     l-48.875,48.875L228.442,219.586z M377.754,185.751l-64,64c-4.16,4.16-9.621,6.251-15.083,6.251     c-5.461,0-10.923-2.091-15.083-6.251c-8.341-8.341-8.341-21.824,0-30.165l48.875-48.875l-48.896-48.96     c-8.32-8.341-8.32-21.845,0.043-30.187c8.299-8.299,21.824-8.32,30.165,0.021l63.168,63.296c2.283,2.069,4.139,4.651,5.397,7.616     C385.626,170.477,383.855,179.65,377.754,185.751z" fill="#FFFFFF"/>
			<path d="M0,367.127c0,32.832,26.709,59.541,59.541,59.541h105.152l-10.667,42.667h-4.693c-11.776,0-21.333,9.557-21.333,21.333     s9.557,21.333,21.333,21.333h21.333h170.667h21.333c11.797,0,21.333-9.557,21.333-21.333s-9.536-21.333-21.333-21.333h-4.672     l-10.667-42.667h105.131c32.832,0,59.541-26.709,59.541-59.541v-25.792H0V367.127z M208.683,426.669h94.656l10.667,42.667     H198.016L208.683,426.669z" fill="#FFFFFF"/>
		</g>
	</g>
</g>
<g>
</g>
<g>
</g>
<g>
</g>
<g>
</g>
<g>
</g>
<g>
</g>
<g>
</g>
<g>
</g>
<g>
</g>
<g>
</g>
<g>
</g>
<g>
</g>
<g>
</g>
<g>
</g>
<g>
</g>
</svg>
