<?xml version="1.0" encoding="iso-8859-1"?>
<!DOCTYPE svg PUBLIC "-//W3C//DTD SVG 1.1//EN" "http://www.w3.org/Graphics/SVG/1.1/DTD/svg11.dtd">
<svg xmlns="http://www.w3.org/2000/svg" xmlns:xlink="http://www.w3.org/1999/xlink" version="1.1" viewBox="0 0 512 512" enable-background="new 0 0 512 512" width="512px" height="512px">
  <path d="m511.359,411.447c-1.242-4.273-4.219-7.844-8.203-9.836l-18.664-9.328c14.234-35.328 27.211-76.226 27.336-120.304 0.219-80.516-25.859-152.383-71.555-197.179-101.609-99.64-266.937-99.64-368.546,0-45.687,44.796-71.836,116.655-71.726,197.147 0.063,43.68 13.148,84.75 27.508,120.336l-18.664,9.328c-3.984,1.992-6.961,5.563-8.203,9.836-1.25,4.281-0.656,8.891 1.641,12.711l48,80c4.469,7.453 14.094,9.992 21.656,5.656l53.391-30.508c35.539-20.312 50.57-64.812 34.226-101.304-30.672-68.461-35.562-173.875 3.805-212.476 51.078-50.094 134.203-50.094 185.281,0 39.367,38.602 34.477,144.015 3.805,212.476-16.344,36.492-1.313,80.992 34.227,101.304l53.391,30.508c2.5,1.43 5.227,2.109 7.922,2.109 5.445,0 10.742-2.773 13.734-7.766l48-80c2.294-3.819 2.888-8.429 1.638-12.71zm-447.359-75.523c0-8.845 7.156-16 15.992-16s16.008,7.155 16.008,16c0,8.844-7.172,16-16.008,16s-15.992-7.157-15.992-16zm31.992,80c-8.836,0-15.992-7.156-15.992-16 0-8.845 7.156-16 15.992-16 8.836,0 16.008,7.155 16.008,16 0,8.843-7.172,16-16.008,16zm.017-256c-8.837,0-16.009-7.156-16.009-16 0-8.845 7.172-16 16.009-16 8.836,0 15.991,7.155 15.991,16 0,8.844-7.155,16-15.991,16zm115.983-74.461c-21.109,5.437-40.828,14.672-58.609,27.461-2.828,2.031-6.094,3.008-9.328,3.008-4.976,0-9.883-2.313-13.008-6.656-5.156-7.18-3.523-17.18 3.648-22.336 21.023-15.109 44.344-26.031 69.312-32.461 8.586-2.211 17.281,2.945 19.484,11.5 2.204,8.562-2.944,17.281-11.499,19.484zm44.017-5.539c-8.837,0-16.009-7.156-16.009-16 0-8.845 7.172-16 16.009-16 8.836,0 15.991,7.155 15.991,16 0,8.844-7.155,16-15.991,16zm124.944,29.352c-3.125,4.344-8.031,6.656-13.008,6.656-3.234,0-6.5-0.977-9.328-3.008-17.781-12.789-37.5-22.023-58.609-27.461-8.555-2.203-13.703-10.922-11.5-19.484 2.211-8.555 10.867-13.68 19.484-11.5 24.969,6.43 48.289,17.352 69.312,32.461 7.172,5.156 8.805,15.156 3.649,22.336zm35.055,18.648c8.836,0 15.991,7.155 15.991,16 0,8.844-7.155,16-15.991,16-8.837,0-16.009-7.156-16.009-16 0.001-8.845 7.172-16 16.009-16zm0,288c-8.837,0-16.009-7.156-16.009-16 0-8.845 7.172-16 16.009-16 8.836,0 15.991,7.155 15.991,16 0.001,8.843-7.155,16-15.991,16zm16-64c-8.837,0-16.009-7.156-16.009-16 0-8.845 7.172-16 16.009-16 8.836,0 15.991,7.155 15.991,16 0.001,8.843-7.155,16-15.991,16z" fill="#FFFFFF"/>
</svg>
