<?xml version="1.0" encoding="iso-8859-1"?>
<!-- Generator: Adobe Illustrator 18.0.0, SVG Export Plug-In . SVG Version: 6.00 Build 0)  -->
<!DOCTYPE svg PUBLIC "-//W3C//DTD SVG 1.1//EN" "http://www.w3.org/Graphics/SVG/1.1/DTD/svg11.dtd">
<svg xmlns="http://www.w3.org/2000/svg" xmlns:xlink="http://www.w3.org/1999/xlink" version="1.1" id="Capa_1" x="0px" y="0px" viewBox="0 0 490 490" style="enable-background:new 0 0 490 490;" xml:space="preserve" width="512px" height="512px">
<g>
	<path d="M355.487,339.04H322.5V339h-15.236c-3.971,0-7.19-3.218-7.19-7.19V297H189.927v34.81c0,3.972-3.218,7.19-7.19,7.19H167.5   v0.04h-32.986c-3.971,0-7.191,3.218-7.191,7.19V363h235.354v-16.77C362.677,342.258,359.46,339.04,355.487,339.04z" fill="#FFFFFF"/>
	<path d="M482.84,441.245c-1.918-2.223-4.159-4.155-6.654-5.726l-59.692-51.363c-0.502-0.58-1.15-1.128-1.905-1.64   c-3.069-2.082-8.052-3.516-13.693-3.516H245.5h-1H89.105c-5.638,0-10.616,1.432-13.686,3.511c-0.761,0.516-1.413,1.067-1.918,1.65   l-59.685,51.357c-2.497,1.571-4.741,3.506-6.659,5.73C2.701,446.415,0,453.14,0,460.5C0,476.793,13.207,490,29.5,490h215h1h215   c16.293,0,29.5-13.207,29.5-29.5C490,453.139,487.298,446.413,482.84,441.245z M373.5,394.667h24.25c5.522,0,10,4.477,10,10   c0,5.523-4.478,10-10,10H373.5c-5.522,0-10-4.477-10-10C363.5,399.144,367.978,394.667,373.5,394.667z M303.188,394.667h24.25   c5.522,0,10,4.477,10,10c0,5.523-4.478,10-10,10h-24.25c-5.522,0-10-4.477-10-10C293.188,399.144,297.665,394.667,303.188,394.667z    M232.875,394.667h24.25c5.522,0,10,4.477,10,10c0,5.523-4.478,10-10,10h-24.25c-5.523,0-10-4.477-10-10   C222.875,399.144,227.352,394.667,232.875,394.667z M162.563,394.667h24.25c5.523,0,10,4.477,10,10c0,5.523-4.477,10-10,10h-24.25   c-5.523,0-10-4.477-10-10C152.563,399.144,157.04,394.667,162.563,394.667z M92.25,394.667h24.25c5.523,0,10,4.477,10,10   c0,5.523-4.477,10-10,10H92.25c-5.523,0-10-4.477-10-10C82.25,399.144,86.727,394.667,92.25,394.667z M427.5,455h-365   c-5.523,0-10-4.477-10-10s4.477-10,10-10h365c5.522,0,10,4.477,10,10S433.022,455,427.5,455z" fill="#FFFFFF"/>
	<path d="M368.656,0H121.343c-32.25,0-58.487,26.237-58.487,58.487V148.5v90.014c0,32.25,26.237,58.486,58.487,58.486h247.313   c32.25,0,58.488-26.237,58.488-58.486V148.5V58.487C427.145,26.237,400.906,0,368.656,0z M407.145,148.5v90.014   c0,21.255-17.232,38.486-38.488,38.486H121.343c-21.256,0-38.487-17.23-38.487-38.486V148.5V58.487   C82.855,37.23,100.087,20,121.343,20h247.313c21.256,0,38.488,17.231,38.488,38.487V148.5z" fill="#FFFFFF"/>
	<path d="M368.656,40H121.343c-10.193,0-18.487,8.293-18.487,18.487V148.5v90.014c0,10.193,8.294,18.486,18.487,18.486h247.313   c10.193,0,18.488-8.293,18.488-18.486V148.5V58.487C387.145,48.293,378.85,40,368.656,40z" fill="#FFFFFF"/>
</g>
<g>
</g>
<g>
</g>
<g>
</g>
<g>
</g>
<g>
</g>
<g>
</g>
<g>
</g>
<g>
</g>
<g>
</g>
<g>
</g>
<g>
</g>
<g>
</g>
<g>
</g>
<g>
</g>
<g>
</g>
</svg>
